PathFileType	4	(X/Y/Z)	pose_F01_0-96.trc
DataRate	CameraRate	NumFrames	NumMarkers	Units	OrigDataRate	OrigDataStartFrame	OrigNumFrames
30	30	10	21	m	30	32	96
Frame#	Time	CHip			RHip			RKnee			RAnkle			RBigToe			RSmallToe			RHeel			LHip			LKnee			LAnkle			LBigToe			LSmallToe			LHeel			Neck			Nose			RShoulder			RElbow			RWrist			LShoulder			LElbow			LWrist			
		X1	Y1	Z1	X2	Y2	Z2	X3	Y3	Z3	X4	Y4	Z4	X5	Y5	Z5	X6	Y6	Z6	X7	Y7	Z7	X8	Y8	Z8	X9	Y9	Z9	X10	Y10	Z10	X11	Y11	Z11	X12	Y12	Z12	X13	Y13	Z13	X14	Y14	Z14	X15	Y15	Z15	X16	Y16	Z16	X17	Y17	Z17	X18	Y18	Z18	X19	Y19	Z19	X20	Y20	Z20	X21	Y21	Z21	
32	1.0666666666666667	-0.250014165104322	1.8418068965371417	-0.699424717866719	-0.2681024227689616	1.8428044308473865	-0.6356041782460714																-0.23528225092123592	1.8437939833662622	-0.7589068298056957	-0.23760957157501197	1.7162666871651053	-0.7438920258868219													-0.24318015298200785	1.9975935482240683	-0.7358980032350072	-0.23471253224366354	2.037659243051526	-0.6770057409133174	-0.26768402253975726	1.9919269840945373	-0.6541728091244835	-1.4217707772944947	1.8313801445941698	0.5370442795504924	-0.25516146902889436	1.9293570235915338	-0.6276352119751929	-0.2148829140178971	2.0002032915360157	-0.821876967930036	-1.0530219898221718	1.8216339399211168	-0.04205455145594376	-1.267632680104928	1.8270372863309063	0.33378251632024375
33	1.1	-0.25490340817670837	1.8421134660604392	-0.6866027470912048	-0.26847630114745824	1.8430248318923366	-0.6269010069482356																-0.23569514752613535	1.845080249992106	-0.7504227685204827	-0.23866427396450848	1.7172084868176485	-0.7386586190099662													-0.24571579231230353	1.996659433922229	-0.7250545269705723	-0.23945740982801517	2.0350941223801837	-0.6638486027551721	-0.2700726664667929	1.9918200076683423	-0.6436710992206194	-1.4460560906132125	1.8327129806295681	0.5783505346473571	-0.2608823137883357	1.9322626568895833	-0.6181846081301718	-0.2178707447244842	1.9989183214443114	-0.8110133661677674	-1.0739789633041723	1.8204359134953934	-0.008543880798881366	-1.2865829850774089	1.826754046584522	0.36401543151271754
34	1.1333333333333333	-0.2552677305106478	1.8416708688637793	-0.6777007650809737	-0.27093887827039714	1.8404768458783811	-0.6158380731739005																-0.2374760999944952	1.8433406394432081	-0.7366908304721566	-0.2424300248671254	1.7171548205423057	-0.7280422858490785													-0.24846666068659173	1.9943874124314593	-0.7140483409123505	-0.24506292544393643	2.0345517553308032	-0.6539918840765186	-0.2754885386828463	1.9902100519231012	-0.6334370905835163	-0.2902190578286789	1.9272421217903246	-0.6025364501241597	-0.2600965279719367	1.9226769120073866	-0.6056211756520496	-0.22092447011840374	1.9970175486974353	-0.8004681551208195	-1.1031261338011888	1.822154925631812	0.024166945069468246	-1.2837116582245847	1.8264340664093341	0.3611560473590955
35	1.1666666666666667	-0.2580628003505661	1.8404923599346883	-0.658317525678234	-0.27435956464438593	1.8383045707308774	-0.599376458450989																-0.24402655896021708	1.8419509282251945	-0.7177564437612134	-0.24619577576974233	1.717101154266963	-0.7174259526881908													-0.2554955911433113	1.990974911966795	-0.6987048630500253	-0.2526763612354464	2.0340722278976555	-0.6420541955205207	-0.2799718288981501	1.9874441243398622	-0.6203428590905117	-1.4607210908798351	1.8338222423923234	0.5939028612406876	-0.26653739794310133	1.9193544531446056	-0.5903251461518515	-0.2296028714622205	1.994333434461868	-0.7795579410030348	-1.1400728886237304	1.8178825678929247	0.07501440758701741	-0.9368595783862188	1.837971837981007	0.003512260959098401
36	1.2	-0.265834825830524	1.840065661454401	-0.6460270577098011	-0.2799226379642148	1.839947162572289	-0.5895143845450617																-0.24789705840312012	1.8405332442380242	-0.7015952177013626	-0.24996152667235924	1.7170474879916202	-0.706809619527303													-0.2626945759938711	1.9904113041518936	-0.6838478427687145	-0.25842727332230725	2.0348300742337653	-0.6245669389634082	-0.2868449658332293	1.987294651785509	-0.6060114086491092	-0.30355967414283846	1.9219053703671614	-0.5817840292855948	-0.2689307797778061	1.9075052989202956	-0.5602391769520962	-0.23560664107969834	1.99172389813619	-0.7584695513162736	-1.1770655839476636	1.8176527737747081	0.136468737847023	-0.590007498547853	1.8495096095526802	-0.3541315254408987
37	1.2333333333333334	-0.2731818412488791	1.8446022379181433	-0.6224694837626754	-0.28875316773356935	1.8431926231235825	-0.5636816516947282																-0.25790858533964783	1.844609646904289	-0.6756143275941524	-0.25282284674198413	1.7180214307301367	-0.6893008318201752													-0.269795656360344	1.9884248671785516	-0.6601295368174501	-0.26695585414758305	2.036864291981278	-0.6078059576708555	-0.2911305911089054	1.9871627406394223	-0.5844298461286918	-0.304302966455669	1.915370935021214	-0.5416862617018154	-0.27863316059640675	1.8763462072065586	-0.5080706706263103	-0.24513424852302576	1.990792468812671	-0.7410608869526429	-1.2069507810961702	1.8137482860550926	0.1868740059546766	-0.243155418709487	1.861047381124353	-0.7117753118408958
38	1.2666666666666666	-0.278983428679815	1.8486040426573125	-0.6078380179415397	-0.2913052273517307	1.8476360030816865	-0.5567310582418814																-0.26094705601901624	1.8492206963836881	-0.6601910493432409	-0.255684166811609	1.718995373468653	-0.6717920441130474													-0.27638696914415095	1.988187706946241	-0.6451949184652854	-0.2701032719037098	2.04045751841744	-0.600513172956384	-0.29639537624250356	1.985104714235644	-0.5660536447747244	-0.3074229967346013	1.9097955470759602	-0.5161638867883767	-0.30467398555875597	1.8425580996670705	-0.4632781575663165	-0.2521277373589028	1.990612410819458	-0.725988321816701	-1.2447947124741336	1.8133782905815885	0.2559030148038345	-0.24761187952196884	1.8527462157202317	-0.7128795923869313
39	1.3	-0.28189759298665196	1.8395471821947662	-0.5960559525184755	-0.2978604687966112	1.8365561622299227	-0.5404921207614033																-0.26890852317792246	1.8398882023124299	-0.6472672788358326	-0.25854548688123385	1.7199693162071694	-0.6542832564059196													-0.28206132117519556	1.9859758932563858	-0.6267620870442306	-0.2752854249114433	2.0423865925196933	-0.5912899229948911	-0.30258766192752234	1.9815283583598	-0.5505616153834219	-0.3114838471771432	1.9029012170273274	-0.5022292938537821	-0.3111304184607211	1.8371930176329818	-0.4645917049530131	-0.2583029684378111	1.9892874063842525	-0.7076284619471092	-1.257227904646389	1.808998289770323	0.2777655897208054	-0.2520683403344507	1.8444450503161103	-0.7139838729329668
40	1.3333333333333333	-0.28831741699678154	1.8399796981139325	-0.5895045674636261	-0.304235545878769	1.838269556444729	-0.5338707853021348																-0.27163363621873254	1.8414450076976805	-0.6449123848955395	-0.2614068069508587	1.720943258945686	-0.6367744686987917													-0.2845536161641484	1.9841456501940202	-0.6161622019539782	-0.28028785137150714	2.0472492238130777	-0.5824838752110483	-0.3057185599402423	1.9806741603660156	-0.5347401014424812	-0.3160758361377936	1.903073106249772	-0.4979332919768922	-0.3301628301605025	1.8399704701348683	-0.4676588791409322	-0.2598642361131909	1.9887352614020255	-0.702641058790541	-0.2583086262570421	1.908238903814891	-0.720717940455348	-0.2565248011469325	1.8361438849119887	-0.7150881534790022
41	1.3666666666666667	-0.29250654956023203	1.8399379410190506	-0.5851045427812802	-0.30626469142555296	1.8384329778766308	-0.5316815432916245																-0.2757196311623746	1.8422910633958614	-0.6406666758141089	-0.2661086926052329	1.726218210287176	-0.6154236057780101													-0.28571922463636584	1.9845705887458323	-0.6107477498067544	-0.28133712062940114	2.0500426863896783	-0.577489385340574	-0.3069711693801209	1.9805791524197733	-0.5296085309104038	-0.3188150418122722	1.9143826446619843	-0.49904285791940056	-0.3302276207177637	1.8405109808410025	-0.467573396193419	-0.2633282156563887	1.987823365169478	-0.695283503379001	-0.26515635804136584	1.9053710532868968	-0.7139106668716969	-0.26098126195941435	1.8278427195078673	-0.7161924340250377
